<mxfile host="app.diagrams.net" modified="2024-05-24T09:56:05.692Z" agent="Mozilla/5.0 (Windows NT 10.0; Win64; x64) AppleWebKit/537.36 (KHTML, like Gecko) Chrome/125.0.0.0 Safari/537.36 Edg/125.0.0.0" etag="6l69qT6Gv4qVooS8HP_d" version="24.4.7" type="github">
  <diagram name="第 1 页" id="RIavcO6uoZUjZnijJ_pN">
    <mxGraphModel dx="605" dy="365" grid="1" gridSize="10" guides="1" tooltips="1" connect="1" arrows="1" fold="1" page="1" pageScale="1" pageWidth="827" pageHeight="1169" math="0" shadow="0">
      <root>
        <mxCell id="0" />
        <mxCell id="1" parent="0" />
        <mxCell id="FsyVm6fmHX27iy4A4iEs-1" style="edgeStyle=orthogonalEdgeStyle;rounded=0;orthogonalLoop=1;jettySize=auto;html=1;exitX=0;exitY=0.75;exitDx=0;exitDy=0;" edge="1" parent="1" source="GgPbWBN05R_25RMyi4k5-1" target="GgPbWBN05R_25RMyi4k5-3">
          <mxGeometry relative="1" as="geometry" />
        </mxCell>
        <mxCell id="GgPbWBN05R_25RMyi4k5-1" value="" style="rounded=0;whiteSpace=wrap;html=1;" parent="1" vertex="1">
          <mxGeometry x="290" y="40" width="106" height="50" as="geometry" />
        </mxCell>
        <mxCell id="GgPbWBN05R_25RMyi4k5-3" value="" style="ellipse;whiteSpace=wrap;html=1;" parent="1" vertex="1">
          <mxGeometry x="180" y="105" width="120" height="80" as="geometry" />
        </mxCell>
        <mxCell id="GgPbWBN05R_25RMyi4k5-4" value="Text" style="text;html=1;align=center;verticalAlign=middle;whiteSpace=wrap;rounded=0;" parent="1" vertex="1">
          <mxGeometry x="210" y="130" width="60" height="30" as="geometry" />
        </mxCell>
      </root>
    </mxGraphModel>
  </diagram>
</mxfile>
